# xmcd
#
# Track frame offsets:
#	150
#	5620
#	13607
#	24785
#	32920
#	38315
#	47872
#	58247
#	75915
#	85585
#	96985
#	108752
#	119197
#	127975
#	139320
#	146770
#	156860
#	161360
#	168610
#	179265
#	194735
#	206695
#	222097
#	233942
#	248865
#	260077
#	266710
#	274992
#	285190
#	295737
#	299877
#	310647
#
# Disc length: 4214 seconds
#
# Revision: 0
# Processed by: cddbd v1.5PL3 Copyright (c) Steve Scherf et al.
# Submitted via: dBpowerAMP V4.0
#
DISCID=d9107420
DTITLE=Various Artist - Raha Paneb Rattad Käima 9 (Seltskonnalaulud)
DYEAR=1900
DGENRE=
TTITLE0=Ivo Linna - Armastuse polka
TTITLE1=Mait Maltis - Laul armastusest
TTITLE2=Boris Lehtlaan - Kesk öitsvaid lilli
TTITLE3=Meelis Punder - Pea öitsvad lilled
TTITLE4=Ivo Linna - Ka-ka-ka Kati
TTITLE5=Vello Orumets - Katjakene
TTITLE6=Erich Krieger - Mustlasena
TTITLE7=Mati Nuude - Nukrad silmad
TTITLE8=Mait Maltis - Höissa pulmad
TTITLE9=Ivo Linna - Aeg annab köik
TTITLE10=Jansa - Köndis neiu
TTITLE11=Eich Krieger - Tahan sind
TTITLE12=Märt Rannamäe - Eemalt paistab valge maja
TTITLE13=Ivo Linna - Pulmalust
TTITLE14=Jansa - Pai papa
TTITLE15=Vello Orumets - Lained, päike ja tuul (Meremees)
TTITLE16=Erich Krieger - Laulge peiud
TTITLE17=Jassi - Kord mind pulma kutsuti
TTITLE18=Ivo Linna - Kui kodust ma laia maailma
TTITLE19=Boris Lehtlaan - Valged roosid
TTITLE20=Mait Maltis - Süda
TTITLE21=Mati Nuude - Tüdruk
TTITLE22=Erich Krieger - Vöta mind kaasa
TTITLE23=Meelis Punder - Kaks säravat silma
TTITLE24=Jansa - Taadil tare künka peal
TTITLE25=Ivo Linna - la Cucaracha
TTITLE26=Märt Rannamäe - Krokodill
TTITLE27=Vello Orumets - Anna andeks
TTITLE28=Meelis Punder - Malleke
TTITLE29=Jassi ja Sassi - Töistre talu tütreke
TTITLE30=Boris Lehtlaan - Pruudipärg
TTITLE31=Margus Kappel - Pulmamarss
EXTD=
EXTT0=
EXTT1=
EXTT2=
EXTT3=
EXTT4=
EXTT5=
EXTT6=
EXTT7=
EXTT8=
EXTT9=
EXTT10=
EXTT11=
EXTT12=
EXTT13=
EXTT14=
EXTT15=
EXTT16=
EXTT17=
EXTT18=
EXTT19=
EXTT20=
EXTT21=
EXTT22=
EXTT23=
EXTT24=
EXTT25=
EXTT26=
EXTT27=
EXTT28=
EXTT29=
EXTT30=
EXTT31=
PLAYORDER=
